<?xml version="1.0" encoding="UTF-8" standalone="no"?>
<!-- Generator: Adobe Illustrator 24.1.3, SVG Export Plug-In . SVG Version: 6.00 Build 0)  -->

<svg
   xmlns:dc="http://purl.org/dc/elements/1.1/"
   xmlns:cc="http://creativecommons.org/ns#"
   xmlns:rdf="http://www.w3.org/1999/02/22-rdf-syntax-ns#"
   xmlns:svg="http://www.w3.org/2000/svg"
   xmlns="http://www.w3.org/2000/svg"
   xmlns:sodipodi="http://sodipodi.sourceforge.net/DTD/sodipodi-0.dtd"
   xmlns:inkscape="http://www.inkscape.org/namespaces/inkscape"
   version="1.1"
   x="0px"
   y="0px"
   viewBox="0 0 32 32"
   xml:space="preserve"
   id="svg46"
   sodipodi:docname="favicon_black.svg"
   width="32"
   height="32"
   inkscape:version="0.92.5 (2060ec1f9f, 2020-04-08)"><metadata
   id="metadata52"><rdf:RDF><cc:Work
       rdf:about=""><dc:format>image/svg+xml</dc:format><dc:type
         rdf:resource="http://purl.org/dc/dcmitype/StillImage" /><dc:title></dc:title></cc:Work></rdf:RDF></metadata><defs
   id="defs50" /><sodipodi:namedview
   pagecolor="#ffffff"
   bordercolor="#666666"
   borderopacity="1"
   objecttolerance="10"
   gridtolerance="10"
   guidetolerance="10"
   inkscape:pageopacity="0"
   inkscape:pageshadow="2"
   inkscape:window-width="1858"
   inkscape:window-height="1057"
   id="namedview48"
   showgrid="true"
   inkscape:pagecheckerboard="true"
   inkscape:snap-global="false"
   inkscape:zoom="21.898795"
   inkscape:cx="6.4315144"
   inkscape:cy="19.218199"
   inkscape:window-x="54"
   inkscape:window-y="-8"
   inkscape:window-maximized="1"
   inkscape:current-layer="Ebene_1"><inkscape:grid
     type="xygrid"
     id="grid862" /></sodipodi:namedview>
<style
   type="text/css"
   id="style2">
	.st0{fill:#00010D;}
	.st1{opacity:0.5;}
	.st2{fill:none;stroke:#F0047F;stroke-width:1.2987;stroke-linecap:round;stroke-linejoin:round;stroke-miterlimit:10;}
	.st3{fill:none;stroke:#333333;stroke-miterlimit:10;}
	.st4{fill:#FFFFFF;}
	.st5{fill:#8195A6;}
	.st6{fill:none;stroke:#FFFFFF;stroke-width:3.0882;stroke-miterlimit:10;}
	.st7{fill:#5BD9D9;}
	.st8{fill:#D44FEA;}
	.st9{fill:#F2F2F2;}
	.st10{fill:none;stroke:#000000;stroke-width:0.9971;stroke-miterlimit:10;}
	.st11{display:none;}
</style>
<g
   id="Ebene_1"
   transform="translate(0,-418)">
	<g
   id="g42"
   transform="matrix(1.0058187,0,0,1.0058187,-0.76549093,-2.5248586)">
		<g
   id="g34">
			
			
			
			
			
			
			
			
			
			
			
			
			
			
			
		</g>
		<g
   id="g40"
   transform="matrix(0.07533715,0,0,0.07533715,6.4803157,417.04492)">
			<polygon
   class="st0"
   points="259.1,214.6 259.1,161.4 28.9,161.4 28.9,140.8 259.1,140.8 259.1,87.7 28.9,87.7 28.9,67 259.1,67 259.1,13.9 11.1,13.9 11.1,39.6 11.1,67 11.1,87.7 11.1,140.8 11.1,161.4 11.1,189.3 11.1,214.6 "
   id="polygon36"
   style="fill:#00010d" />
			<polygon
   class="st0"
   points="11.1,436.2 259.1,436.2 259.1,418.6 259.1,342.7 259.1,309.3 28.9,309.3 28.9,288.6 259.1,288.6 259.1,235.5 11.1,235.5 11.1,261.2 11.1,288.6 11.1,309.3 11.1,337.2 11.1,362.4 241.4,362.4 241.4,383 11.1,383 "
   id="polygon38"
   style="fill:#00010d" />
		</g>
	</g>
</g>
<g
   id="Ebene_2"
   class="st11"
   style="display:none"
   transform="translate(0,-418)">
</g>
</svg>